<mxfile host="app.diagrams.net" modified="2023-12-28T08:54:40.369Z" agent="Mozilla/5.0 (Windows NT 10.0; Win64; x64) AppleWebKit/537.36 (KHTML, like Gecko) Chrome/120.0.0.0 Safari/537.36" version="22.1.15" etag="ZC_XZARvENNyBuFVKJC5" type="github">
  <diagram name="Страница — 1" id="IUVk7UQ1XQ_qRDh0fd7F">
    <mxGraphModel>
      <root>
        <mxCell id="0" />
        <mxCell id="1" parent="0" />
      </root>
    </mxGraphModel>
  </diagram>
</mxfile>
